{"title":"The Incredible Hulk[Dual Audio] [Eng-Hindi]blu-rayRip.aaaevilach","uid":5825136,"size":885845917,"categoryP":"video","categoryS":"movies","magnet":"?xt=urn:btih:6069cd864b209e4ab9e0480df5ea86a0de4a805f&amp;dn=The+Incredible+Hulk%5BDual+Audio%5D+%5BEng-Hindi%5Dblu-rayRip.aaaevilach&amp;tr=udp%3A%2F%2Ftracker.openbittorrent.com%3A80&amp;tr=udp%3A%2F%2Fopen.demonii.com%3A1337&amp;tr=udp%3A%2F%2Ftracker.coppersurfer.tk%3A6969&amp;tr=udp%3A%2F%2Fexodus.desync.com%3A6969","seeders":0,"leechers":1,"uploader":"achaevil","files":2,"time":1284232009,"description":"General\nComplete name : The Incredible Hulk[Dual Audio] [Eng-Hindi]blu-rayRip.aaaevilacharya\nFormat : Matroska\nFile size : 845 MiB\nDuration : 1h 47mn\nOverall bit rate : 1 097 Kbps\n\n\nVideo\nID : 1\nFormat : MPEG-4 Visual\nFormat profile : Advanced Simple@L5\nFormat settings, BVOP : Yes\nFormat settings, QPel : No\nFormat settings, GMC : No warppoints\nFormat settings, Matrix : Default (H.263)\nCodec ID : DIVX\nCodec ID/Info : Project Mayo\nCodec ID/Hint : DivX 4\nDuration : 1h 47mn\nBit rate : 772 Kbps\nWidth : 668 pixels\nHeight : 278 pixels\nDisplay aspect ratio : 2.40:1\nFrame rate : 25.000 fps\nColor space : YUV\nChroma subsampling : 4:2:0\nBit depth : 8 bits\nScan type : Progressive\nBits/(Pixel*Frame) : 0.166\nStream size : 594 MiB (70%)\nWriting library : XviD 1.0.3 (UTC 2004-12-20)\n\nAudio #1\nID : 2\nFormat : MPEG Audio\nFormat version : Version 1\nFormat profile : Layer 3\nCodec ID : A_MPEG/L3\nCodec ID/Hint : MP3\nDuration : 1h 47mn\nBit rate mode : Constant\nBit rate : 112 Kbps\nChannel(s) : 2 channels\nSampling rate : 48.0 KHz\nStream size : 86.2 MiB (10%)\nTitle : English\n\nAudio #2\nID : 3\nFormat : MPEG Audio\nFormat version : Version 1\nFormat profile : Layer 3\nMode : Joint stereo\nCodec ID : A_MPEG/L3\nCodec ID/Hint : MP3\nDuration : 1h 47mn\nBit rate mode : Variable\nBit rate : 192 Kbps\nChannel(s) : 2 channels\nSampling rate : 44.1 KHz\nStream size : 148 MiB (17%)\nTitle : Hindi\nLanguage : / Hindi\n\nIMDb.........link: http://www.imdb.com/title/tt0800080/\n\n","torrent":{"xt":"urn:btih:6069cd864b209e4ab9e0480df5ea86a0de4a805f","amp;dn":"The+Incredible+Hulk%5BDual+Audio%5D+%5BEng-Hindi%5Dblu-rayRip.aaaevilach","amp;tr":["udp%3A%2F%2Ftracker.openbittorrent.com%3A80","udp%3A%2F%2Fopen.demonii.com%3A1337","udp%3A%2F%2Ftracker.coppersurfer.tk%3A6969","udp%3A%2F%2Fexodus.desync.com%3A6969"],"infoHash":"6069cd864b209e4ab9e0480df5ea86a0de4a805f","infoHashBuffer":{"type":"Buffer","data":[96,105,205,134,75,32,158,74,185,224,72,13,245,234,134,160,222,74,128,95]},"announce":[],"urlList":[]}}